<mxfile host="app.diagrams.net" modified="2023-10-23T11:38:27.811Z" agent="Mozilla/5.0 (Windows NT 10.0; Win64; x64) AppleWebKit/537.36 (KHTML, like Gecko) Chrome/118.0.0.0 Safari/537.36" version="22.0.6" etag="UC7z6V4HL59Ks3q_ycpr" type="github">
  <diagram name="第 1 页" id="_Cnm-oWFnG0JvxYJ02Eb">
    <mxGraphModel>
      <root>
        <mxCell id="0" />
        <mxCell id="1" parent="0" />
      </root>
    </mxGraphModel>
  </diagram>
</mxfile>
